# xmcd CD database file
#
# Track frame offsets:
#	150
#	5590
#	23243
#	34856
#	48909
#	56236
#	71520
#	82142
#	86420
#	104234
#	113267
#	120706
#	135318
#	142506
#	172169
#	199575
#
# Disc length: 2725 seconds
#
# Revision: 0
# Processed by: cddbd v1.5.2PL0 Copyright (c) Steve Scherf et al.
# Submitted via: CDex 1.70beta2
#
DISCID=d50aa310
DTITLE=Moeller, Peter - Shrine Of Impossible Love, The
DYEAR=2005
DGENRE=New Age
TTITLE0=Shrine Of Impossible Love
TTITLE1=Arcane
TTITLE2=Witness
TTITLE3=Bridge
TTITLE4=Bridge-Slight Return
TTITLE5=Perish
TTITLE6=Denmark
TTITLE7=Goblins
TTITLE8=B2
TTITLE9=Fallujah
TTITLE10=Karen's Walk
TTITLE11=Falling
TTITLE12=Monday
TTITLE13=Exquisite Fate
TTITLE14=Take U Down
TTITLE15=Shrine Of Impossible Love (Reprise)
EXTD=YEAR: 2005
EXTT0=
EXTT1=
EXTT2=
EXTT3=
EXTT4=
EXTT5=
EXTT6=
EXTT7=
EXTT8=
EXTT9=
EXTT10=
EXTT11=
EXTT12=
EXTT13=
EXTT14=
EXTT15=
PLAYORDER=
